<svg width="34" height="34" viewBox="0 0 34 34" fill="none" xmlns="http://www.w3.org/2000/svg">
<path d="M17.083 25.333C17.4723 25.333 17.7987 25.2013 18.062 24.938C18.326 24.674 18.458 24.3473 18.458 23.958V18.5H24C24.3613 18.5 24.674 18.368 24.938 18.104C25.2013 17.84 25.333 17.5137 25.333 17.125C25.333 16.7083 25.2013 16.368 24.938 16.104C24.674 15.84 24.3473 15.708 23.958 15.708H18.458V9.99999C18.458 9.63866 18.326 9.32633 18.062 9.06299C17.7987 8.79899 17.4723 8.66699 17.083 8.66699C16.6943 8.66699 16.368 8.79899 16.104 9.06299C15.84 9.32633 15.708 9.65266 15.708 10.042V15.708H10C9.63867 15.708 9.32601 15.847 9.06201 16.125C8.79867 16.403 8.66701 16.7363 8.66701 17.125C8.66701 17.5137 8.79867 17.84 9.06201 18.104C9.32601 18.368 9.65267 18.5 10.042 18.5H15.708V24C15.708 24.3613 15.84 24.674 16.104 24.938C16.368 25.2013 16.6943 25.333 17.083 25.333ZM17 33.667C14.6667 33.667 12.486 33.2363 10.458 32.375C8.43067 31.5137 6.66701 30.333 5.16701 28.833C3.66701 27.333 2.48634 25.5693 1.62501 23.542C0.763675 21.514 0.333008 19.3333 0.333008 17C0.333008 14.6667 0.763675 12.486 1.62501 10.458C2.48634 8.43066 3.66701 6.66699 5.16701 5.16699C6.66701 3.66699 8.43067 2.48633 10.458 1.62499C12.486 0.763659 14.6667 0.332993 17 0.332993C19.3333 0.332993 21.514 0.763659 23.542 1.62499C25.5693 2.48633 27.333 3.66699 28.833 5.16699C30.333 6.66699 31.5137 8.43066 32.375 10.458C33.2363 12.486 33.667 14.6667 33.667 17C33.667 19.3333 33.2363 21.514 32.375 23.542C31.5137 25.5693 30.333 27.333 28.833 28.833C27.333 30.333 25.5693 31.5137 23.542 32.375C21.514 33.2363 19.3333 33.667 17 33.667ZM17 30.875C20.8333 30.875 24.104 29.5207 26.812 26.812C29.5207 24.104 30.875 20.8333 30.875 17C30.875 13.1667 29.5207 9.89599 26.812 7.18799C24.104 4.47933 20.8333 3.12499 17 3.12499C13.1667 3.12499 9.89601 4.47933 7.18801 7.18799C4.47934 9.89599 3.12501 13.1667 3.12501 17C3.12501 20.8333 4.47934 24.104 7.18801 26.812C9.89601 29.5207 13.1667 30.875 17 30.875Z" fill="#006711"/>
</svg>
