<svg width="33" height="20" viewBox="0 0 33 20" fill="none" xmlns="http://www.w3.org/2000/svg">
<path d="M0.542026 18.875C0.264026 18.625 0.132026 18.3193 0.146026 17.958C0.160026 17.5973 0.292026 17.292 0.542026 17.042L10.667 6.875C10.8057 6.73633 10.9514 6.632 11.104 6.562C11.2567 6.49267 11.4164 6.458 11.583 6.458C11.7777 6.458 11.9444 6.49267 12.083 6.562C12.2224 6.632 12.3754 6.73633 12.542 6.875L18.375 12.708L28.042 3.125H24.333C23.9724 3.125 23.667 3 23.417 2.75C23.167 2.5 23.042 2.19433 23.042 1.833C23.042 1.44433 23.167 1.125 23.417 0.875C23.667 0.625 23.9724 0.5 24.333 0.5H31.125C31.4864 0.5 31.7987 0.625 32.062 0.875C32.326 1.125 32.458 1.43067 32.458 1.792V8.583C32.458 8.94433 32.326 9.257 32.062 9.521C31.7987 9.785 31.4864 9.917 31.125 9.917C30.7917 9.917 30.493 9.785 30.229 9.521C29.965 9.257 29.833 8.94433 29.833 8.583V5.042L19.292 15.583C19.1527 15.7223 19.0067 15.8197 18.854 15.875C18.7014 15.9303 18.5417 15.958 18.375 15.958C18.1804 15.958 18.0137 15.9303 17.875 15.875C17.7364 15.8197 17.5974 15.7223 17.458 15.583L11.583 9.708L2.37503 18.917C2.12503 19.167 1.81936 19.292 1.45803 19.292C1.09736 19.292 0.792026 19.153 0.542026 18.875Z" fill="#006711"/>
</svg>
